<svg clip-rule="evenodd" fill-rule="evenodd" height="512" stroke-linejoin="round" stroke-miterlimit="2" viewBox="0 0 24 24" width="512" xmlns="http://www.w3.org/2000/svg"><g id="Icon"><path d="m7.25 7.646c-1.154-.327-2-1.388-2-2.646 0-1.518 1.232-2.75 2.75-2.75s2.75 1.232 2.75 2.75c0 1.258-.846 2.319-2 2.646v5.67c.278-.142.584-.239.909-.279 1.334-.167 3.162-.395 4.496-.562.626-.078 1.095-.61 1.095-1.241v-.588c-1.154-.327-2-1.388-2-2.646 0-1.518 1.232-2.75 2.75-2.75s2.75 1.232 2.75 2.75c0 1.258-.846 2.319-2 2.646v.588c0 1.387-1.033 2.557-2.409 2.729-1.334.167-3.162.395-4.496.562-.626.078-1.095.61-1.095 1.241v.588c1.154.327 2 1.388 2 2.646 0 1.518-1.232 2.75-2.75 2.75s-2.75-1.232-2.75-2.75c0-1.258.846-2.319 2-2.646zm.75 10.104c.69 0 1.25.56 1.25 1.25s-.56 1.25-1.25 1.25-1.25-.56-1.25-1.25.56-1.25 1.25-1.25zm8-11c.69 0 1.25.56 1.25 1.25s-.56 1.25-1.25 1.25-1.25-.56-1.25-1.25.56-1.25 1.25-1.25zm-8-3c.69 0 1.25.56 1.25 1.25s-.56 1.25-1.25 1.25-1.25-.56-1.25-1.25.56-1.25 1.25-1.25z"/></g></svg>