<?xml version="1.0" encoding="iso-8859-1"?>
<!-- Generator: Adobe Illustrator 19.0.0, SVG Export Plug-In . SVG Version: 6.00 Build 0)  -->
<svg version="1.1" id="Capa_1" xmlns="http://www.w3.org/2000/svg" xmlns:xlink="http://www.w3.org/1999/xlink" x="0px" y="0px"
	 viewBox="0 0 512 512" style="enable-background:new 0 0 512 512;" xml:space="preserve">
<g>
	<g>
		<path d="M407,0H105C47.103,0,0,47.103,0,105v302c0,57.897,47.103,105,105,105h302c57.897,0,105-47.103,105-105V105
			C512,47.103,464.897,0,407,0z M374.704,146L255.958,264.745L137.213,146H374.704z M102.754,338.033
			C101.638,335.935,101,333.542,101,331V161c0-2.542,0.638-4.935,1.754-7.033L194.787,246L102.754,338.033z M137.213,346
			L216,267.213l39.959,39.959l40-40L374.787,346H137.213z M411,331c0,2.542-0.638,4.935-1.754,7.033l-92.075-92.074l92.047-92.048
			c1.136,2.111,1.782,4.524,1.782,7.089V331z"/>
	</g>
</g>
<g>
</g>
<g>
</g>
<g>
</g>
<g>
</g>
<g>
</g>
<g>
</g>
<g>
</g>
<g>
</g>
<g>
</g>
<g>
</g>
<g>
</g>
<g>
</g>
<g>
</g>
<g>
</g>
<g>
</g>
</svg>
