<svg viewBox="0 0 24 24" xmlns="http://www.w3.org/2000/svg"><g id="Git"><path d="m23.56 10.93-10.5-10.5a1.54 1.54 0 0 0 -2.12 0l-2 2a.5.5 0 0 0 0 .71l1.8 1.86a.5.5 0 0 0 .54.11 2 2 0 0 1 2.72 1.89 2 2 0 0 1 -.15.74.5.5 0 0 0 .11.54l1.76 1.72a.5.5 0 0 0 .54.11 2 2 0 1 1 -1.26 1.89 2 2 0 0 1 .14-.71.5.5 0 0 0 -.11-.53l-1.68-1.69a.5.5 0 0 0 -.85.35v5.28a.5.5 0 0 0 .3.46 2 2 0 1 1 -1.6 0 .5.5 0 0 0 .3-.46v-5.42a.5.5 0 0 0 -.3-.46 2 2 0 0 1 -1.06-2.56.5.5 0 0 0 -.14-.53l-1.81-1.85a.5.5 0 0 0 -.71 0l-7 7a1.5 1.5 0 0 0 0 2.12l10.5 10.51a1.5 1.5 0 0 0 2.12 0l10.5-10.51a1.5 1.5 0 0 0 0-2.12z" fill="#303c42"/></g></svg>