<?xml version="1.0" encoding="UTF-8"?>
<!-- Generator: Adobe Illustrator 26.0.1, SVG Export Plug-In . SVG Version: 6.00 Build 0)  -->
<svg xmlns="http://www.w3.org/2000/svg" xmlns:xlink="http://www.w3.org/1999/xlink" version="1.1" id="Capa_1" x="0px" y="0px" viewBox="0 0 512 512" style="enable-background:new 0 0 512 512;" xml:space="preserve" width="512" height="512">
<g>
	<path style="fill-rule:evenodd;clip-rule:evenodd;" d="M202.82,342.63l-0.04-0.08c0.77-0.41,1.55-0.84,2.35-1.27   c3.72,13.77,3.31,26.62-0.54,38.26c-0.42,1.29-0.89,2.57-1.41,3.83c-0.51,1.26-1.06,2.51-1.65,3.74   c-2.97,6.15-6.95,11.92-11.83,17.24c-14.87,16.22-35.65,22.36-44.56,17.19c-9.63-5.58-4.81-28.46,12.44-46.69   C176.13,355.24,202.82,342.63,202.82,342.63z"/>
	<path style="fill-rule:evenodd;clip-rule:evenodd;" d="M256,0C114.62,0,0,114.62,0,256s114.62,256,256,256s256-114.62,256-256   S397.38,0,256,0z M339.47,226.98c-44.38,17.17-81.08,14.45-96.15,9.51c-17.14-5.63-27.19-16.93-29.64-23.31   c-0.96-2.49-2.62-6.69,0-8.14c1.61-0.89,2.25-0.68,6.56,4.07c4.1,4.51,20.55,16.63,51.81,13.12   c82.03-9.19,131.44-72.93,115.83-107.23c-10.93-24-74.17-34.84-153.16,4.53c-96.43,48.05-101.66,87.66-102.48,102.7   c-2.26,41.38,51.07,63.16,79.92,93.94c0.68,0.72,1.34,1.45,1.98,2.19c8.73-3.25,20.82-5.08,40.04-5.41   c46.66-0.8,73.02,29.96,71.94,57.46c-0.85,21.66-20.74,30.59-24.43,31.21c-2.69,0.46-4.15,0.53-4.53-1.57   c-0.26-1.45,0.7-2.12,3.85-4.07c3.15-1.95,12.57-8.4,14.25-20.14c1.68-11.73-7.13-39.77-52.03-45.02   c-15.92-1.86-28.44-0.59-39.18,2.25c7.78,17.16,9.28,51.68-8.64,78.4c-18.57,27.7-53.12,44.55-86.79,35.18   c-10.87-3.02-27.28-25.48-13.12-56.78c13.42-29.67,70.76-58.69,78.6-62.55v-0.13c-26.57-22.88-91.21-53.71-100.32-100.88   c-2.58-13.37,3.69-45.37,42.99-82.12c33.05-30.92,79.02-54.6,121.48-69.68c71.35-25.35,146.74-10.4,158.33,35.06   C427.98,154.28,389.17,207.76,339.47,226.98z"/>
</g>















</svg>
