<?xml version="1.0" encoding="iso-8859-1"?>
<!-- Generator: Adobe Illustrator 16.0.0, SVG Export Plug-In . SVG Version: 6.00 Build 0)  -->
<!DOCTYPE svg PUBLIC "-//W3C//DTD SVG 1.1//EN" "http://www.w3.org/Graphics/SVG/1.1/DTD/svg11.dtd">
<svg version="1.1" id="Capa_1" xmlns="http://www.w3.org/2000/svg" xmlns:xlink="http://www.w3.org/1999/xlink" x="0px" y="0px"
	 width="96.98px" height="96.98px" viewBox="0 0 96.98 96.98" style="enable-background:new 0 0 96.98 96.98;" xml:space="preserve"
	>
<g>
	<g>
		<path d="M49.16,51.833L37.694,85.152c3.425,1.004,7.046,1.558,10.798,1.558c4.449,0,8.719-0.77,12.689-2.167
			c-0.102-0.164-0.195-0.338-0.271-0.527L49.16,51.833z"/>
		<path d="M10.272,48.488c0,15.129,8.792,28.202,21.541,34.396l-18.23-49.949C11.463,37.688,10.272,42.948,10.272,48.488z"/>
		<path d="M74.289,46.56c0-4.723-1.695-7.993-3.149-10.541c-1.938-3.148-3.754-5.813-3.754-8.962c0-3.513,2.664-6.783,6.418-6.783
			c0.17,0,0.33,0.021,0.496,0.029c-6.798-6.227-15.856-10.031-25.807-10.031c-13.354,0-25.101,6.85-31.932,17.227
			c0.896,0.027,1.739,0.046,2.459,0.046c3.998,0,10.187-0.485,10.187-0.485c2.062-0.124,2.302,2.903,0.245,3.146
			c0,0-2.071,0.243-4.374,0.365l13.915,41.397l8.363-25.085L41.4,30.57c-2.058-0.122-4.007-0.365-4.007-0.365
			c-2.058-0.12-1.818-3.268,0.241-3.146c0,0,6.313,0.485,10.066,0.485c3.997,0,10.188-0.485,10.188-0.485
			c2.062-0.122,2.303,2.903,0.243,3.146c0,0-2.073,0.243-4.374,0.365L67.57,71.653l3.812-12.738
			C73.033,53.629,74.289,49.831,74.289,46.56z"/>
		<path d="M82.025,30.153c0.164,1.216,0.258,2.525,0.258,3.93c0,3.878-0.723,8.238-2.905,13.689L67.703,81.523
			c11.361-6.626,19.006-18.936,19.006-33.033C86.71,41.844,85.011,35.596,82.025,30.153z"/>
		<path d="M48.49,0C21.71,0,0.001,21.71,0.001,48.49S21.71,96.98,48.49,96.98s48.489-21.71,48.489-48.49S75.27,0,48.49,0z
			 M48.492,90.997c-23.44,0-42.507-19.067-42.507-42.509c0-23.438,19.066-42.505,42.507-42.505
			c23.437,0,42.503,19.068,42.503,42.505C90.996,71.928,71.928,90.997,48.492,90.997z"/>
	</g>
</g>
<g>
</g>
<g>
</g>
<g>
</g>
<g>
</g>
<g>
</g>
<g>
</g>
<g>
</g>
<g>
</g>
<g>
</g>
<g>
</g>
<g>
</g>
<g>
</g>
<g>
</g>
<g>
</g>
<g>
</g>
</svg>
