<svg width="351" height="351" viewBox="0 0 351 351" fill="none" xmlns="http://www.w3.org/2000/svg">
<mask id="mask0_1_63" style="mask-type:alpha" maskUnits="userSpaceOnUse" x="32" y="54" width="285" height="147">
<rect x="32" y="54" width="285" height="147" fill="#D9D9D9"/>
</mask>
<g mask="url(#mask0_1_63)">
<path d="M123.5 167.25V168.5C146.333 175.667 157.75 191.25 157.75 215.25C157.75 227.417 154.5 238.333 148 248C141.667 257.667 134.583 265 126.75 270H69.75V241H112.75C114.75 239.167 117 235.5 119.5 230C122 224.5 123.25 218.917 123.25 213.25C123.25 202.75 119.5 195 112 190H91.75V162.75L122 127.75L120.75 125H70.75V95H131C145.167 101 152.25 110.5 152.25 123.5C152.25 133.5 147.667 143.083 138.5 152.25L123.5 167.25ZM208.545 125H170.795V95H280.295V125H242.545V270H208.545V125Z" fill="#804106"/>
</g>
<mask id="mask1_1_63" style="mask-type:alpha" maskUnits="userSpaceOnUse" x="64" y="234" width="285" height="36">
<rect x="64" y="234" width="285" height="36" fill="#D9D9D9"/>
</mask>
<g mask="url(#mask1_1_63)">
<path d="M123.5 167.75V169C146.333 176.167 157.75 191.75 157.75 215.75C157.75 227.917 154.5 238.833 148 248.5C141.667 258.167 134.583 265.5 126.75 270.5H69.75V241.5H112.75C114.75 239.667 117 236 119.5 230.5C122 225 123.25 219.417 123.25 213.75C123.25 203.25 119.5 195.5 112 190.5H91.75V163.25L122 128.25L120.75 125.5H70.75V95.5H131C145.167 101.5 152.25 111 152.25 124C152.25 134 147.667 143.583 138.5 152.75L123.5 167.75ZM208.545 125.5H170.795V95.5H280.295V125.5H242.545V270.5H208.545V125.5Z" fill="#F2F2F2"/>
</g>
<path d="M82.83 210.6H78.3V207H91.44V210.6H86.91V228H82.83V210.6ZM91.8591 228V212.67H94.7091L95.4591 214.29C96.2591 213.21 97.2691 212.67 98.4891 212.67H99.6591V216.69H95.8491V228H91.8591ZM108.024 221.07H104.814C104.394 221.59 104.184 222.24 104.184 223.02C104.184 223.8 104.404 224.41 104.844 224.85H108.024V221.07ZM101.574 212.67H109.014C110.214 213.39 111.004 214.22 111.384 215.16C111.764 216.08 111.954 217.34 111.954 218.94V223.44C111.954 225.1 111.994 226.62 112.074 228H108.654L108.114 226.92C107.334 227.64 106.234 228 104.814 228H102.924C101.224 226.88 100.374 225.27 100.374 223.17C100.374 221.05 101.244 219.38 102.984 218.16H105.804C106.584 218.16 107.314 218.4 107.994 218.88V217.38C107.994 216.6 107.654 216.08 106.974 215.82H101.574V212.67ZM121.194 212.67H124.374C125.254 213.79 125.854 214.91 126.174 216.03C126.494 217.15 126.654 218.55 126.654 220.23V228H122.664V219.93C122.664 218.03 122.404 216.66 121.884 215.82H118.524V228H114.534V212.67H117.654L118.194 213.75C118.634 213.35 119.044 213.07 119.424 212.91C119.824 212.75 120.414 212.67 121.194 212.67ZM137.469 210.6H132.939V207H146.079V210.6H141.549V228H137.469V210.6ZM154.659 212.67H157.509C158.389 213.79 158.989 214.91 159.309 216.03C159.629 217.15 159.789 218.55 159.789 220.23V228H155.799V219.93C155.799 218.03 155.539 216.66 155.019 215.82H151.659V228H147.669V207H151.659V213.75C152.099 213.35 152.509 213.07 152.889 212.91C153.289 212.75 153.879 212.67 154.659 212.67ZM162.259 228V212.67H166.219V228H162.259ZM162.259 207H166.219V211.05H162.259V207ZM175.722 215.82H173.472C173.172 216.18 172.922 216.68 172.722 217.32C172.542 217.96 172.452 218.58 172.452 219.18H176.742C176.782 218.58 176.702 217.96 176.502 217.32C176.302 216.66 176.042 216.16 175.722 215.82ZM179.802 224.85V228H172.182C170.782 227.06 169.792 225.9 169.212 224.52C168.652 223.12 168.372 221.71 168.372 220.29C168.372 217.01 169.612 214.47 172.092 212.67H176.952C178.292 213.65 179.202 214.69 179.682 215.79C180.162 216.89 180.402 218 180.402 219.12C180.402 220.24 180.312 221.2 180.132 222H172.662C172.722 222.46 172.892 222.99 173.172 223.59C173.472 224.17 173.792 224.59 174.132 224.85H179.802ZM189.075 212.67H192.255C193.135 213.79 193.735 214.91 194.055 216.03C194.375 217.15 194.535 218.55 194.535 220.23V228H190.545V219.93C190.545 218.03 190.285 216.66 189.765 215.82H186.405V228H182.415V212.67H185.535L186.075 213.75C186.515 213.35 186.925 213.07 187.305 212.91C187.705 212.75 188.295 212.67 189.075 212.67ZM205.35 210.6H200.82V207H213.96V210.6H209.43V228H205.35V210.6ZM222.54 212.67H225.39C226.27 213.79 226.87 214.91 227.19 216.03C227.51 217.15 227.67 218.55 227.67 220.23V228H223.68V219.93C223.68 218.03 223.42 216.66 222.9 215.82H219.54V228H215.55V207H219.54V213.75C219.98 213.35 220.39 213.07 220.77 212.91C221.17 212.75 221.76 212.67 222.54 212.67ZM237.37 221.07H234.16C233.74 221.59 233.53 222.24 233.53 223.02C233.53 223.8 233.75 224.41 234.19 224.85H237.37V221.07ZM230.92 212.67H238.36C239.56 213.39 240.35 214.22 240.73 215.16C241.11 216.08 241.3 217.34 241.3 218.94V223.44C241.3 225.1 241.34 226.62 241.42 228H238L237.46 226.92C236.68 227.64 235.58 228 234.16 228H232.27C230.57 226.88 229.72 225.27 229.72 223.17C229.72 221.05 230.59 219.38 232.33 218.16H235.15C235.93 218.16 236.66 218.4 237.34 218.88V217.38C237.34 216.6 237 216.08 236.32 215.82H230.92V212.67ZM250.54 212.67H253.72C254.6 213.79 255.2 214.91 255.52 216.03C255.84 217.15 256 218.55 256 220.23V228H252.01V219.93C252.01 218.03 251.75 216.66 251.23 215.82H247.87V228H243.88V212.67H247L247.54 213.75C247.98 213.35 248.39 213.07 248.77 212.91C249.17 212.75 249.76 212.67 250.54 212.67ZM265.46 212.67H268.31C269.19 213.79 269.79 214.91 270.11 216.03C270.43 217.15 270.59 218.55 270.59 220.23V228H266.6V219.93C266.6 218.03 266.34 216.66 265.82 215.82H262.46V228H258.47V207H262.46V213.75C262.9 213.35 263.31 213.07 263.69 212.91C264.09 212.75 264.68 212.67 265.46 212.67Z" fill="#F2F2F2"/>
</svg>
