<svg xmlns="http://www.w3.org/2000/svg" width="48" height="48" viewBox="0 0 48 48" fill="none">
    <g clip-path="url(#clip0_17_10)">
        <path d="M48 0H0V48H48V0Z" fill="#30231D"/>
        <mask id="mask0_17_10" style="mask-type:alpha" maskUnits="userSpaceOnUse" x="4" y="7" width="40" height="21">
            <path d="M43.3504 7.38461H4.37607V27.4872H43.3504V7.38461Z" fill="#D9D9D9"/>
        </mask>
        <g mask="url(#mask0_17_10)">
            <path d="M16.8889 22.8718V23.0427C20.0114 24.0228 21.5727 26.1538 21.5727 29.4359C21.5727 31.0998 21.1282 32.5925 20.2393 33.9145C19.3733 35.2365 18.4045 36.2393 17.3333 36.9231H9.53847V32.9573H15.4188C15.6923 32.7066 16 32.2051 16.3419 31.453C16.6838 30.7009 16.8547 29.9374 16.8547 29.1624C16.8547 27.7265 16.3419 26.6667 15.3162 25.9829H12.547V22.2564L16.6838 17.4701L16.5128 17.094H9.67522V12.9915H17.9145C19.8519 13.812 20.8205 15.1111 20.8205 16.8889C20.8205 18.2564 20.1938 19.5669 18.9402 20.8205L16.8889 22.8718ZM28.519 17.094H23.3566V12.9915H38.3309V17.094H33.1686V36.9231H28.519V17.094Z" fill="#804106"/>
        </g>
        <mask id="mask1_17_10" style="mask-type:alpha" maskUnits="userSpaceOnUse" x="8" y="32" width="40" height="5">
            <path d="M47.7265 32H8.75214V36.9231H47.7265V32Z" fill="#D9D9D9"/>
        </mask>
        <g mask="url(#mask1_17_10)">
            <path d="M16.8889 22.9402V23.1111C20.0114 24.0912 21.5727 26.2222 21.5727 29.5043C21.5727 31.1681 21.1282 32.6609 20.2393 33.9829C19.3733 35.3049 18.4045 36.3077 17.3333 36.9915H9.53847V33.0256H15.4188C15.6923 32.775 16 32.2735 16.3419 31.5214C16.6838 30.7692 16.8547 30.0057 16.8547 29.2308C16.8547 27.7949 16.3419 26.735 15.3162 26.0513H12.547V22.3248L16.6838 17.5385L16.5128 17.1624H9.67522V13.0598H17.9145C19.8519 13.8803 20.8205 15.1795 20.8205 16.9573C20.8205 18.3248 20.1938 19.6353 18.9402 20.8889L16.8889 22.9402ZM28.519 17.1624H23.3566V13.0598H38.3309V17.1624H33.1686V36.9915H28.519V17.1624Z" fill="#F2F2F2"/>
        </g>
        <path d="M11.3272 28.8H10.7077V28.3077H12.5046V28.8H11.8851V31.1795H11.3272V28.8ZM12.5619 31.1795V29.0831H12.9517L13.0542 29.3046C13.1636 29.1569 13.3018 29.0831 13.4686 29.0831H13.6286V29.6328H13.1076V31.1795H12.5619ZM14.7725 30.2318H14.3335C14.2761 30.3029 14.2474 30.3918 14.2474 30.4985C14.2474 30.6051 14.2775 30.6885 14.3376 30.7487H14.7725V30.2318ZM13.8905 29.0831H14.9079C15.072 29.1815 15.18 29.295 15.232 29.4236C15.284 29.5494 15.3099 29.7217 15.3099 29.9405V30.5559C15.3099 30.7829 15.3154 30.9908 15.3264 31.1795H14.8587L14.7848 31.0318C14.6781 31.1303 14.5277 31.1795 14.3335 31.1795H14.0751C13.8426 31.0263 13.7264 30.8062 13.7264 30.519C13.7264 30.2291 13.8453 30.0007 14.0833 29.8338H14.4689C14.5756 29.8338 14.6754 29.8667 14.7684 29.9323V29.7272C14.7684 29.6205 14.7219 29.5494 14.6289 29.5138H13.8905V29.0831ZM16.5735 29.0831H17.0084C17.1287 29.2362 17.2108 29.3894 17.2546 29.5426C17.2983 29.6957 17.3202 29.8872 17.3202 30.1169V31.1795H16.7746V30.0759C16.7746 29.8161 16.739 29.6287 16.6679 29.5138H16.2084V31.1795H15.6628V29.0831H16.0894L16.1633 29.2308C16.2234 29.1761 16.2795 29.1378 16.3315 29.1159C16.3862 29.094 16.4669 29.0831 16.5735 29.0831ZM18.7992 28.8H18.1797V28.3077H19.9766V28.8H19.3571V31.1795H18.7992V28.8ZM21.1499 29.0831H21.5397C21.66 29.2362 21.7421 29.3894 21.7858 29.5426C21.8296 29.6957 21.8515 29.8872 21.8515 30.1169V31.1795H21.3058V30.0759C21.3058 29.8161 21.2703 29.6287 21.1992 29.5138H20.7397V31.1795H20.194V28.3077H20.7397V29.2308C20.7999 29.1761 20.8559 29.1378 20.9079 29.1159C20.9626 29.094 21.0433 29.0831 21.1499 29.0831ZM22.1893 31.1795V29.0831H22.7308V31.1795H22.1893ZM22.1893 28.3077H22.7308V28.8615H22.1893V28.3077ZM24.0304 29.5138H23.7227C23.6816 29.5631 23.6474 29.6315 23.6201 29.719C23.5955 29.8065 23.5832 29.8913 23.5832 29.9733H24.1698C24.1753 29.8913 24.1644 29.8065 24.137 29.719C24.1097 29.6287 24.0741 29.5603 24.0304 29.5138ZM24.5883 30.7487V31.1795H23.5463C23.3548 31.0509 23.2194 30.8923 23.1401 30.7036C23.0635 30.5121 23.0252 30.3193 23.0252 30.1251C23.0252 29.6766 23.1948 29.3292 23.5339 29.0831H24.1986C24.3818 29.2171 24.5063 29.3593 24.5719 29.5097C24.6375 29.6602 24.6704 29.812 24.6704 29.9651C24.6704 30.1183 24.658 30.2496 24.6334 30.359H23.6119C23.6201 30.4219 23.6433 30.4944 23.6816 30.5764C23.7227 30.6557 23.7664 30.7132 23.8129 30.7487H24.5883ZM25.8564 29.0831H26.2913C26.4116 29.2362 26.4937 29.3894 26.5374 29.5426C26.5812 29.6957 26.6031 29.8872 26.6031 30.1169V31.1795H26.0574V30.0759C26.0574 29.8161 26.0219 29.6287 25.9508 29.5138H25.4913V31.1795H24.9456V29.0831H25.3723L25.4461 29.2308C25.5063 29.1761 25.5624 29.1378 25.6144 29.1159C25.6691 29.094 25.7497 29.0831 25.8564 29.0831ZM28.082 28.8H27.4626V28.3077H29.2595V28.8H28.64V31.1795H28.082V28.8ZM30.4328 29.0831H30.8226C30.9429 29.2362 31.025 29.3894 31.0687 29.5426C31.1125 29.6957 31.1344 29.8872 31.1344 30.1169V31.1795H30.5887V30.0759C30.5887 29.8161 30.5532 29.6287 30.482 29.5138H30.0226V31.1795H29.4769V28.3077H30.0226V29.2308C30.0827 29.1761 30.1388 29.1378 30.1908 29.1159C30.2455 29.094 30.3261 29.0831 30.4328 29.0831ZM32.4608 30.2318H32.0219C31.9644 30.3029 31.9357 30.3918 31.9357 30.4985C31.9357 30.6051 31.9658 30.6885 32.026 30.7487H32.4608V30.2318ZM31.5788 29.0831H32.5962C32.7603 29.1815 32.8684 29.295 32.9203 29.4236C32.9723 29.5494 32.9983 29.7217 32.9983 29.9405V30.5559C32.9983 30.7829 33.0038 30.9908 33.0147 31.1795H32.547L32.4732 31.0318C32.3665 31.1303 32.2161 31.1795 32.0219 31.1795H31.7634C31.5309 31.0263 31.4147 30.8062 31.4147 30.519C31.4147 30.2291 31.5337 30.0007 31.7716 29.8338H32.1573C32.2639 29.8338 32.3638 29.8667 32.4567 29.9323V29.7272C32.4567 29.6205 32.4103 29.5494 32.3173 29.5138H31.5788V29.0831ZM34.2619 29.0831H34.6967C34.8171 29.2362 34.8991 29.3894 34.9429 29.5426C34.9867 29.6957 35.0085 29.8872 35.0085 30.1169V31.1795H34.4629V30.0759C34.4629 29.8161 34.4273 29.6287 34.3562 29.5138H33.8967V31.1795H33.3511V29.0831H33.7778L33.8516 29.2308C33.9118 29.1761 33.9679 29.1378 34.0198 29.1159C34.0745 29.094 34.1552 29.0831 34.2619 29.0831ZM36.3022 29.0831H36.692C36.8123 29.2362 36.8944 29.3894 36.9381 29.5426C36.9819 29.6957 37.0038 29.8872 37.0038 30.1169V31.1795H36.4581V30.0759C36.4581 29.8161 36.4226 29.6287 36.3514 29.5138H35.892V31.1795H35.3463V28.3077H35.892V29.2308C35.9521 29.1761 36.0082 29.1378 36.0602 29.1159C36.1149 29.094 36.1956 29.0831 36.3022 29.0831Z" fill="#F2F2F2"/>
    </g>
    <defs>
        <clipPath id="clip0_17_10">
            <rect width="48" height="48" rx="4" fill="white"/>
        </clipPath>
    </defs>
</svg>